<mxfile host="app.diagrams.net" modified="2021-03-09T08:33:21.459Z" agent="5.0 (Windows NT 10.0; Win64; x64) AppleWebKit/537.36 (KHTML, like Gecko) Chrome/88.0.4324.190 Safari/537.36" etag="H2AKANOL5HJIVpY3mTmk" version="14.4.4" type="github">
  <diagram id="pm3CTdE94XCGAJy9RAcZ" name="Page-1">
    <mxGraphModel dx="1550" dy="2013" grid="1" gridSize="10" guides="1" tooltips="1" connect="1" arrows="1" fold="1" page="1" pageScale="1" pageWidth="827" pageHeight="1169" math="0" shadow="0">
      <root>
        <mxCell id="0" />
        <mxCell id="1" parent="0" />
        <mxCell id="jG1fITqHFRiVS3RjOqyx-1" value="Tag" style="shape=table;startSize=30;container=1;collapsible=1;childLayout=tableLayout;fixedRows=1;rowLines=0;fontStyle=1;align=center;resizeLast=1;" vertex="1" parent="1">
          <mxGeometry x="425" y="-655" width="310" height="460" as="geometry" />
        </mxCell>
        <mxCell id="jG1fITqHFRiVS3RjOqyx-2" value="" style="shape=partialRectangle;collapsible=0;dropTarget=0;pointerEvents=0;fillColor=none;points=[[0,0.5],[1,0.5]];portConstraint=eastwest;top=0;left=0;right=0;bottom=1;" vertex="1" parent="jG1fITqHFRiVS3RjOqyx-1">
          <mxGeometry y="30" width="310" height="30" as="geometry" />
        </mxCell>
        <mxCell id="jG1fITqHFRiVS3RjOqyx-3" value="PK" style="shape=partialRectangle;overflow=hidden;connectable=0;fillColor=none;top=0;left=0;bottom=0;right=0;fontStyle=1;" vertex="1" parent="jG1fITqHFRiVS3RjOqyx-2">
          <mxGeometry width="30" height="30" as="geometry" />
        </mxCell>
        <mxCell id="jG1fITqHFRiVS3RjOqyx-4" value="Id" style="shape=partialRectangle;overflow=hidden;connectable=0;fillColor=none;top=0;left=0;bottom=0;right=0;align=left;spacingLeft=6;fontStyle=5;" vertex="1" parent="jG1fITqHFRiVS3RjOqyx-2">
          <mxGeometry x="30" width="280" height="30" as="geometry" />
        </mxCell>
        <mxCell id="jG1fITqHFRiVS3RjOqyx-5" value="" style="shape=partialRectangle;collapsible=0;dropTarget=0;pointerEvents=0;fillColor=none;points=[[0,0.5],[1,0.5]];portConstraint=eastwest;top=0;left=0;right=0;bottom=0;" vertex="1" parent="jG1fITqHFRiVS3RjOqyx-1">
          <mxGeometry y="60" width="310" height="30" as="geometry" />
        </mxCell>
        <mxCell id="jG1fITqHFRiVS3RjOqyx-6" value="" style="shape=partialRectangle;overflow=hidden;connectable=0;fillColor=none;top=0;left=0;bottom=0;right=0;" vertex="1" parent="jG1fITqHFRiVS3RjOqyx-5">
          <mxGeometry width="30" height="30" as="geometry" />
        </mxCell>
        <mxCell id="jG1fITqHFRiVS3RjOqyx-7" value="Name" style="shape=partialRectangle;overflow=hidden;connectable=0;fillColor=none;top=0;left=0;bottom=0;right=0;align=left;spacingLeft=6;" vertex="1" parent="jG1fITqHFRiVS3RjOqyx-5">
          <mxGeometry x="30" width="280" height="30" as="geometry" />
        </mxCell>
        <mxCell id="jG1fITqHFRiVS3RjOqyx-8" value="" style="shape=partialRectangle;collapsible=0;dropTarget=0;pointerEvents=0;fillColor=none;points=[[0,0.5],[1,0.5]];portConstraint=eastwest;top=0;left=0;right=0;bottom=0;" vertex="1" parent="jG1fITqHFRiVS3RjOqyx-1">
          <mxGeometry y="90" width="310" height="30" as="geometry" />
        </mxCell>
        <mxCell id="jG1fITqHFRiVS3RjOqyx-9" value="" style="shape=partialRectangle;overflow=hidden;connectable=0;fillColor=none;top=0;left=0;bottom=0;right=0;" vertex="1" parent="jG1fITqHFRiVS3RjOqyx-8">
          <mxGeometry width="30" height="30" as="geometry" />
        </mxCell>
        <mxCell id="jG1fITqHFRiVS3RjOqyx-10" value="..." style="shape=partialRectangle;overflow=hidden;connectable=0;fillColor=none;top=0;left=0;bottom=0;right=0;align=left;spacingLeft=6;" vertex="1" parent="jG1fITqHFRiVS3RjOqyx-8">
          <mxGeometry x="30" width="280" height="30" as="geometry" />
        </mxCell>
        <mxCell id="jG1fITqHFRiVS3RjOqyx-11" value="" style="shape=partialRectangle;collapsible=0;dropTarget=0;pointerEvents=0;fillColor=none;points=[[0,0.5],[1,0.5]];portConstraint=eastwest;top=0;left=0;right=0;bottom=0;" vertex="1" parent="jG1fITqHFRiVS3RjOqyx-1">
          <mxGeometry y="120" width="310" height="30" as="geometry" />
        </mxCell>
        <mxCell id="jG1fITqHFRiVS3RjOqyx-12" value="FK" style="shape=partialRectangle;overflow=hidden;connectable=0;fillColor=none;top=0;left=0;bottom=0;right=0;" vertex="1" parent="jG1fITqHFRiVS3RjOqyx-11">
          <mxGeometry width="30" height="30" as="geometry" />
        </mxCell>
        <mxCell id="jG1fITqHFRiVS3RjOqyx-13" value="DeviceId" style="shape=partialRectangle;overflow=hidden;connectable=0;fillColor=none;top=0;left=0;bottom=0;right=0;align=left;spacingLeft=6;" vertex="1" parent="jG1fITqHFRiVS3RjOqyx-11">
          <mxGeometry x="30" width="280" height="30" as="geometry" />
        </mxCell>
        <mxCell id="jG1fITqHFRiVS3RjOqyx-14" value="" style="shape=partialRectangle;collapsible=0;dropTarget=0;pointerEvents=0;fillColor=none;points=[[0,0.5],[1,0.5]];portConstraint=eastwest;top=0;left=0;right=0;bottom=0;" vertex="1" parent="jG1fITqHFRiVS3RjOqyx-1">
          <mxGeometry y="150" width="310" height="30" as="geometry" />
        </mxCell>
        <mxCell id="jG1fITqHFRiVS3RjOqyx-15" value="FK" style="shape=partialRectangle;overflow=hidden;connectable=0;fillColor=none;top=0;left=0;bottom=0;right=0;" vertex="1" parent="jG1fITqHFRiVS3RjOqyx-14">
          <mxGeometry width="30" height="30" as="geometry" />
        </mxCell>
        <mxCell id="jG1fITqHFRiVS3RjOqyx-16" value="TagServerId" style="shape=partialRectangle;overflow=hidden;connectable=0;fillColor=none;top=0;left=0;bottom=0;right=0;align=left;spacingLeft=6;" vertex="1" parent="jG1fITqHFRiVS3RjOqyx-14">
          <mxGeometry x="30" width="280" height="30" as="geometry" />
        </mxCell>
        <mxCell id="jG1fITqHFRiVS3RjOqyx-17" value="" style="shape=partialRectangle;collapsible=0;dropTarget=0;pointerEvents=0;fillColor=none;points=[[0,0.5],[1,0.5]];portConstraint=eastwest;top=0;left=0;right=0;bottom=0;" vertex="1" parent="jG1fITqHFRiVS3RjOqyx-1">
          <mxGeometry y="180" width="310" height="30" as="geometry" />
        </mxCell>
        <mxCell id="jG1fITqHFRiVS3RjOqyx-18" value="" style="shape=partialRectangle;overflow=hidden;connectable=0;fillColor=none;top=0;left=0;bottom=0;right=0;" vertex="1" parent="jG1fITqHFRiVS3RjOqyx-17">
          <mxGeometry width="30" height="30" as="geometry" />
        </mxCell>
        <mxCell id="jG1fITqHFRiVS3RjOqyx-19" value="OpcNodeId (adresse de l&#39;objet bacnet)" style="shape=partialRectangle;overflow=hidden;connectable=0;fillColor=none;top=0;left=0;bottom=0;right=0;align=left;spacingLeft=6;fontColor=#FF8000;" vertex="1" parent="jG1fITqHFRiVS3RjOqyx-17">
          <mxGeometry x="30" width="280" height="30" as="geometry" />
        </mxCell>
        <mxCell id="jG1fITqHFRiVS3RjOqyx-20" value="" style="shape=partialRectangle;collapsible=0;dropTarget=0;pointerEvents=0;fillColor=none;points=[[0,0.5],[1,0.5]];portConstraint=eastwest;top=0;left=0;right=0;bottom=0;" vertex="1" parent="jG1fITqHFRiVS3RjOqyx-1">
          <mxGeometry y="210" width="310" height="30" as="geometry" />
        </mxCell>
        <mxCell id="jG1fITqHFRiVS3RjOqyx-21" value="FK" style="shape=partialRectangle;overflow=hidden;connectable=0;fillColor=none;top=0;left=0;bottom=0;right=0;" vertex="1" parent="jG1fITqHFRiVS3RjOqyx-20">
          <mxGeometry width="30" height="30" as="geometry" />
        </mxCell>
        <mxCell id="jG1fITqHFRiVS3RjOqyx-22" value="TagTypeId" style="shape=partialRectangle;overflow=hidden;connectable=0;fillColor=none;top=0;left=0;bottom=0;right=0;align=left;spacingLeft=6;" vertex="1" parent="jG1fITqHFRiVS3RjOqyx-20">
          <mxGeometry x="30" width="280" height="30" as="geometry" />
        </mxCell>
        <mxCell id="jG1fITqHFRiVS3RjOqyx-23" value="" style="shape=partialRectangle;collapsible=0;dropTarget=0;pointerEvents=0;fillColor=none;points=[[0,0.5],[1,0.5]];portConstraint=eastwest;top=0;left=0;right=0;bottom=0;" vertex="1" parent="jG1fITqHFRiVS3RjOqyx-1">
          <mxGeometry y="240" width="310" height="30" as="geometry" />
        </mxCell>
        <mxCell id="jG1fITqHFRiVS3RjOqyx-24" value="FK" style="shape=partialRectangle;overflow=hidden;connectable=0;fillColor=none;top=0;left=0;bottom=0;right=0;" vertex="1" parent="jG1fITqHFRiVS3RjOqyx-23">
          <mxGeometry width="30" height="30" as="geometry" />
        </mxCell>
        <mxCell id="jG1fITqHFRiVS3RjOqyx-25" value="TagMultiStateId" style="shape=partialRectangle;overflow=hidden;connectable=0;fillColor=none;top=0;left=0;bottom=0;right=0;align=left;spacingLeft=6;fontColor=#009900;labelBackgroundColor=none;labelBorderColor=none;" vertex="1" parent="jG1fITqHFRiVS3RjOqyx-23">
          <mxGeometry x="30" width="280" height="30" as="geometry" />
        </mxCell>
        <mxCell id="jG1fITqHFRiVS3RjOqyx-26" value="" style="shape=partialRectangle;collapsible=0;dropTarget=0;pointerEvents=0;fillColor=none;points=[[0,0.5],[1,0.5]];portConstraint=eastwest;top=0;left=0;right=0;bottom=0;" vertex="1" parent="jG1fITqHFRiVS3RjOqyx-1">
          <mxGeometry y="270" width="310" height="30" as="geometry" />
        </mxCell>
        <mxCell id="jG1fITqHFRiVS3RjOqyx-27" value="FK" style="shape=partialRectangle;overflow=hidden;connectable=0;fillColor=none;top=0;left=0;bottom=0;right=0;" vertex="1" parent="jG1fITqHFRiVS3RjOqyx-26">
          <mxGeometry width="30" height="30" as="geometry" />
        </mxCell>
        <mxCell id="jG1fITqHFRiVS3RjOqyx-28" value="TagRefreshIntervalId" style="shape=partialRectangle;overflow=hidden;connectable=0;fillColor=none;top=0;left=0;bottom=0;right=0;align=left;spacingLeft=6;" vertex="1" parent="jG1fITqHFRiVS3RjOqyx-26">
          <mxGeometry x="30" width="280" height="30" as="geometry" />
        </mxCell>
        <mxCell id="jG1fITqHFRiVS3RjOqyx-29" value="" style="shape=partialRectangle;collapsible=0;dropTarget=0;pointerEvents=0;fillColor=none;points=[[0,0.5],[1,0.5]];portConstraint=eastwest;top=0;left=0;right=0;bottom=0;" vertex="1" parent="jG1fITqHFRiVS3RjOqyx-1">
          <mxGeometry y="300" width="310" height="25" as="geometry" />
        </mxCell>
        <mxCell id="jG1fITqHFRiVS3RjOqyx-30" value="FK" style="shape=partialRectangle;overflow=hidden;connectable=0;fillColor=none;top=0;left=0;bottom=0;right=0;" vertex="1" parent="jG1fITqHFRiVS3RjOqyx-29">
          <mxGeometry width="30" height="25" as="geometry" />
        </mxCell>
        <mxCell id="jG1fITqHFRiVS3RjOqyx-31" value="Format" style="shape=partialRectangle;overflow=hidden;connectable=0;fillColor=none;top=0;left=0;bottom=0;right=0;align=left;spacingLeft=6;" vertex="1" parent="jG1fITqHFRiVS3RjOqyx-29">
          <mxGeometry x="30" width="280" height="25" as="geometry" />
        </mxCell>
        <mxCell id="jG1fITqHFRiVS3RjOqyx-32" value="" style="shape=partialRectangle;collapsible=0;dropTarget=0;pointerEvents=0;fillColor=none;points=[[0,0.5],[1,0.5]];portConstraint=eastwest;top=0;left=0;right=0;bottom=0;" vertex="1" parent="jG1fITqHFRiVS3RjOqyx-1">
          <mxGeometry y="325" width="310" height="25" as="geometry" />
        </mxCell>
        <mxCell id="jG1fITqHFRiVS3RjOqyx-33" value="" style="shape=partialRectangle;overflow=hidden;connectable=0;fillColor=none;top=0;left=0;bottom=0;right=0;" vertex="1" parent="jG1fITqHFRiVS3RjOqyx-32">
          <mxGeometry width="30" height="25" as="geometry" />
        </mxCell>
        <mxCell id="jG1fITqHFRiVS3RjOqyx-34" value="ParentTagId" style="shape=partialRectangle;overflow=hidden;connectable=0;fillColor=none;top=0;left=0;bottom=0;right=0;align=left;spacingLeft=6;" vertex="1" parent="jG1fITqHFRiVS3RjOqyx-32">
          <mxGeometry x="30" width="280" height="25" as="geometry" />
        </mxCell>
        <mxCell id="jG1fITqHFRiVS3RjOqyx-35" value="" style="shape=partialRectangle;collapsible=0;dropTarget=0;pointerEvents=0;fillColor=none;points=[[0,0.5],[1,0.5]];portConstraint=eastwest;top=0;left=0;right=0;bottom=0;" vertex="1" parent="jG1fITqHFRiVS3RjOqyx-1">
          <mxGeometry y="350" width="310" height="25" as="geometry" />
        </mxCell>
        <mxCell id="jG1fITqHFRiVS3RjOqyx-36" value="FK" style="shape=partialRectangle;overflow=hidden;connectable=0;fillColor=none;top=0;left=0;bottom=0;right=0;" vertex="1" parent="jG1fITqHFRiVS3RjOqyx-35">
          <mxGeometry width="30" height="25" as="geometry" />
        </mxCell>
        <mxCell id="jG1fITqHFRiVS3RjOqyx-37" value="BACNetObjectTypeId" style="shape=partialRectangle;overflow=hidden;connectable=0;fillColor=none;top=0;left=0;bottom=0;right=0;align=left;spacingLeft=6;fontColor=#009900;labelBorderColor=#FF8000;" vertex="1" parent="jG1fITqHFRiVS3RjOqyx-35">
          <mxGeometry x="30" width="280" height="25" as="geometry" />
        </mxCell>
        <mxCell id="jG1fITqHFRiVS3RjOqyx-38" value="" style="shape=partialRectangle;collapsible=0;dropTarget=0;pointerEvents=0;fillColor=none;points=[[0,0.5],[1,0.5]];portConstraint=eastwest;top=0;left=0;right=0;bottom=0;" vertex="1" parent="jG1fITqHFRiVS3RjOqyx-1">
          <mxGeometry y="375" width="310" height="25" as="geometry" />
        </mxCell>
        <mxCell id="jG1fITqHFRiVS3RjOqyx-39" value="" style="shape=partialRectangle;overflow=hidden;connectable=0;fillColor=none;top=0;left=0;bottom=0;right=0;" vertex="1" parent="jG1fITqHFRiVS3RjOqyx-38">
          <mxGeometry width="30" height="25" as="geometry" />
        </mxCell>
        <mxCell id="jG1fITqHFRiVS3RjOqyx-40" value="priority int" style="shape=partialRectangle;overflow=hidden;connectable=0;fillColor=none;top=0;left=0;bottom=0;right=0;align=left;spacingLeft=6;labelBackgroundColor=none;labelBorderColor=#FF8000;fontColor=#009900;" vertex="1" parent="jG1fITqHFRiVS3RjOqyx-38">
          <mxGeometry x="30" width="280" height="25" as="geometry" />
        </mxCell>
        <mxCell id="jG1fITqHFRiVS3RjOqyx-41" value="" style="shape=partialRectangle;collapsible=0;dropTarget=0;pointerEvents=0;fillColor=none;points=[[0,0.5],[1,0.5]];portConstraint=eastwest;top=0;left=0;right=0;bottom=0;" vertex="1" parent="jG1fITqHFRiVS3RjOqyx-1">
          <mxGeometry y="400" width="310" height="25" as="geometry" />
        </mxCell>
        <mxCell id="jG1fITqHFRiVS3RjOqyx-42" value="FK" style="shape=partialRectangle;overflow=hidden;connectable=0;fillColor=none;top=0;left=0;bottom=0;right=0;" vertex="1" parent="jG1fITqHFRiVS3RjOqyx-41">
          <mxGeometry width="30" height="25" as="geometry" />
        </mxCell>
        <mxCell id="jG1fITqHFRiVS3RjOqyx-43" value="ModBusTypeValueId" style="shape=partialRectangle;overflow=hidden;connectable=0;fillColor=none;top=0;left=0;bottom=0;right=0;align=left;spacingLeft=6;labelBackgroundColor=none;labelBorderColor=none;fontColor=#009900;" vertex="1" parent="jG1fITqHFRiVS3RjOqyx-41">
          <mxGeometry x="30" width="280" height="25" as="geometry" />
        </mxCell>
        <mxCell id="jG1fITqHFRiVS3RjOqyx-44" value="" style="shape=partialRectangle;collapsible=0;dropTarget=0;pointerEvents=0;fillColor=none;points=[[0,0.5],[1,0.5]];portConstraint=eastwest;top=0;left=0;right=0;bottom=0;" vertex="1" parent="jG1fITqHFRiVS3RjOqyx-1">
          <mxGeometry y="425" width="310" height="25" as="geometry" />
        </mxCell>
        <mxCell id="jG1fITqHFRiVS3RjOqyx-45" value="" style="shape=partialRectangle;overflow=hidden;connectable=0;fillColor=none;top=0;left=0;bottom=0;right=0;" vertex="1" parent="jG1fITqHFRiVS3RjOqyx-44">
          <mxGeometry width="30" height="25" as="geometry" />
        </mxCell>
        <mxCell id="jG1fITqHFRiVS3RjOqyx-46" value="Scaling" style="shape=partialRectangle;overflow=hidden;connectable=0;fillColor=none;top=0;left=0;bottom=0;right=0;align=left;spacingLeft=6;labelBackgroundColor=none;labelBorderColor=#FF8000;fontColor=#009900;" vertex="1" parent="jG1fITqHFRiVS3RjOqyx-44">
          <mxGeometry x="30" width="280" height="25" as="geometry" />
        </mxCell>
        <mxCell id="jG1fITqHFRiVS3RjOqyx-47" value="" style="edgeStyle=entityRelationEdgeStyle;endArrow=ERone;startArrow=ERzeroToMany;endFill=0;startFill=1;" edge="1" parent="1" source="jG1fITqHFRiVS3RjOqyx-49" target="jG1fITqHFRiVS3RjOqyx-23">
          <mxGeometry width="100" height="100" relative="1" as="geometry">
            <mxPoint x="690" y="315" as="sourcePoint" />
            <mxPoint x="800" y="-190" as="targetPoint" />
          </mxGeometry>
        </mxCell>
        <mxCell id="jG1fITqHFRiVS3RjOqyx-48" value="TagMultiState" style="shape=table;startSize=30;container=1;collapsible=1;childLayout=tableLayout;fixedRows=1;rowLines=0;fontStyle=1;align=center;resizeLast=1;fillColor=#d5e8d4;strokeColor=#82b366;" vertex="1" parent="1">
          <mxGeometry x="940" y="-920" width="250" height="160" as="geometry" />
        </mxCell>
        <mxCell id="jG1fITqHFRiVS3RjOqyx-49" value="" style="shape=partialRectangle;collapsible=0;dropTarget=0;pointerEvents=0;fillColor=none;points=[[0,0.5],[1,0.5]];portConstraint=eastwest;top=0;left=0;right=0;bottom=1;" vertex="1" parent="jG1fITqHFRiVS3RjOqyx-48">
          <mxGeometry y="30" width="250" height="30" as="geometry" />
        </mxCell>
        <mxCell id="jG1fITqHFRiVS3RjOqyx-50" value="PK" style="shape=partialRectangle;overflow=hidden;connectable=0;fillColor=none;top=0;left=0;bottom=0;right=0;fontStyle=1;" vertex="1" parent="jG1fITqHFRiVS3RjOqyx-49">
          <mxGeometry width="30" height="30" as="geometry" />
        </mxCell>
        <mxCell id="jG1fITqHFRiVS3RjOqyx-51" value="Id" style="shape=partialRectangle;overflow=hidden;connectable=0;fillColor=none;top=0;left=0;bottom=0;right=0;align=left;spacingLeft=6;fontStyle=5;" vertex="1" parent="jG1fITqHFRiVS3RjOqyx-49">
          <mxGeometry x="30" width="220" height="30" as="geometry" />
        </mxCell>
        <mxCell id="jG1fITqHFRiVS3RjOqyx-52" value="" style="shape=partialRectangle;collapsible=0;dropTarget=0;pointerEvents=0;fillColor=none;points=[[0,0.5],[1,0.5]];portConstraint=eastwest;top=0;left=0;right=0;bottom=0;" vertex="1" parent="jG1fITqHFRiVS3RjOqyx-48">
          <mxGeometry y="60" width="250" height="30" as="geometry" />
        </mxCell>
        <mxCell id="jG1fITqHFRiVS3RjOqyx-53" value="" style="shape=partialRectangle;overflow=hidden;connectable=0;fillColor=none;top=0;left=0;bottom=0;right=0;" vertex="1" parent="jG1fITqHFRiVS3RjOqyx-52">
          <mxGeometry width="30" height="30" as="geometry" />
        </mxCell>
        <mxCell id="jG1fITqHFRiVS3RjOqyx-54" value="StateValue" style="shape=partialRectangle;overflow=hidden;connectable=0;fillColor=none;top=0;left=0;bottom=0;right=0;align=left;spacingLeft=6;fontColor=#FF8000;" vertex="1" parent="jG1fITqHFRiVS3RjOqyx-52">
          <mxGeometry x="30" width="220" height="30" as="geometry" />
        </mxCell>
        <mxCell id="jG1fITqHFRiVS3RjOqyx-55" value="" style="shape=partialRectangle;collapsible=0;dropTarget=0;pointerEvents=0;fillColor=none;points=[[0,0.5],[1,0.5]];portConstraint=eastwest;top=0;left=0;right=0;bottom=0;" vertex="1" parent="jG1fITqHFRiVS3RjOqyx-48">
          <mxGeometry y="90" width="250" height="30" as="geometry" />
        </mxCell>
        <mxCell id="jG1fITqHFRiVS3RjOqyx-56" value="" style="shape=partialRectangle;overflow=hidden;connectable=0;fillColor=none;top=0;left=0;bottom=0;right=0;" vertex="1" parent="jG1fITqHFRiVS3RjOqyx-55">
          <mxGeometry width="30" height="30" as="geometry" />
        </mxCell>
        <mxCell id="jG1fITqHFRiVS3RjOqyx-57" value="State" style="shape=partialRectangle;overflow=hidden;connectable=0;fillColor=none;top=0;left=0;bottom=0;right=0;align=left;spacingLeft=6;" vertex="1" parent="jG1fITqHFRiVS3RjOqyx-55">
          <mxGeometry x="30" width="220" height="30" as="geometry" />
        </mxCell>
        <mxCell id="jG1fITqHFRiVS3RjOqyx-58" value="" style="shape=partialRectangle;collapsible=0;dropTarget=0;pointerEvents=0;fillColor=none;points=[[0,0.5],[1,0.5]];portConstraint=eastwest;top=0;left=0;right=0;bottom=0;" vertex="1" parent="jG1fITqHFRiVS3RjOqyx-48">
          <mxGeometry y="120" width="250" height="30" as="geometry" />
        </mxCell>
        <mxCell id="jG1fITqHFRiVS3RjOqyx-59" value="" style="shape=partialRectangle;overflow=hidden;connectable=0;fillColor=none;top=0;left=0;bottom=0;right=0;" vertex="1" parent="jG1fITqHFRiVS3RjOqyx-58">
          <mxGeometry width="30" height="30" as="geometry" />
        </mxCell>
        <mxCell id="jG1fITqHFRiVS3RjOqyx-60" value="Description" style="shape=partialRectangle;overflow=hidden;connectable=0;fillColor=none;top=0;left=0;bottom=0;right=0;align=left;spacingLeft=6;" vertex="1" parent="jG1fITqHFRiVS3RjOqyx-58">
          <mxGeometry x="30" width="220" height="30" as="geometry" />
        </mxCell>
        <mxCell id="jG1fITqHFRiVS3RjOqyx-68" value="TagRefreshInterval" style="shape=table;startSize=30;container=1;collapsible=1;childLayout=tableLayout;fixedRows=1;rowLines=0;fontStyle=1;align=center;resizeLast=1;" vertex="1" parent="1">
          <mxGeometry x="860" y="-523" width="250" height="130" as="geometry">
            <mxRectangle x="65" y="-940" width="120" height="30" as="alternateBounds" />
          </mxGeometry>
        </mxCell>
        <mxCell id="jG1fITqHFRiVS3RjOqyx-69" value="" style="shape=partialRectangle;collapsible=0;dropTarget=0;pointerEvents=0;fillColor=none;points=[[0,0.5],[1,0.5]];portConstraint=eastwest;top=0;left=0;right=0;bottom=1;" vertex="1" parent="jG1fITqHFRiVS3RjOqyx-68">
          <mxGeometry y="30" width="250" height="30" as="geometry" />
        </mxCell>
        <mxCell id="jG1fITqHFRiVS3RjOqyx-70" value="PK" style="shape=partialRectangle;overflow=hidden;connectable=0;fillColor=none;top=0;left=0;bottom=0;right=0;fontStyle=1;" vertex="1" parent="jG1fITqHFRiVS3RjOqyx-69">
          <mxGeometry width="30" height="30" as="geometry" />
        </mxCell>
        <mxCell id="jG1fITqHFRiVS3RjOqyx-71" value="Id" style="shape=partialRectangle;overflow=hidden;connectable=0;fillColor=none;top=0;left=0;bottom=0;right=0;align=left;spacingLeft=6;fontStyle=5;" vertex="1" parent="jG1fITqHFRiVS3RjOqyx-69">
          <mxGeometry x="30" width="220" height="30" as="geometry" />
        </mxCell>
        <mxCell id="jG1fITqHFRiVS3RjOqyx-72" value="" style="shape=partialRectangle;collapsible=0;dropTarget=0;pointerEvents=0;fillColor=none;points=[[0,0.5],[1,0.5]];portConstraint=eastwest;top=0;left=0;right=0;bottom=0;" vertex="1" parent="jG1fITqHFRiVS3RjOqyx-68">
          <mxGeometry y="60" width="250" height="30" as="geometry" />
        </mxCell>
        <mxCell id="jG1fITqHFRiVS3RjOqyx-73" value="" style="shape=partialRectangle;overflow=hidden;connectable=0;fillColor=none;top=0;left=0;bottom=0;right=0;" vertex="1" parent="jG1fITqHFRiVS3RjOqyx-72">
          <mxGeometry width="30" height="30" as="geometry" />
        </mxCell>
        <mxCell id="jG1fITqHFRiVS3RjOqyx-74" value="Name" style="shape=partialRectangle;overflow=hidden;connectable=0;fillColor=none;top=0;left=0;bottom=0;right=0;align=left;spacingLeft=6;" vertex="1" parent="jG1fITqHFRiVS3RjOqyx-72">
          <mxGeometry x="30" width="220" height="30" as="geometry" />
        </mxCell>
        <mxCell id="jG1fITqHFRiVS3RjOqyx-75" value="" style="shape=partialRectangle;collapsible=0;dropTarget=0;pointerEvents=0;fillColor=none;points=[[0,0.5],[1,0.5]];portConstraint=eastwest;top=0;left=0;right=0;bottom=0;" vertex="1" parent="jG1fITqHFRiVS3RjOqyx-68">
          <mxGeometry y="90" width="250" height="30" as="geometry" />
        </mxCell>
        <mxCell id="jG1fITqHFRiVS3RjOqyx-76" value="" style="shape=partialRectangle;overflow=hidden;connectable=0;fillColor=none;top=0;left=0;bottom=0;right=0;" vertex="1" parent="jG1fITqHFRiVS3RjOqyx-75">
          <mxGeometry width="30" height="30" as="geometry" />
        </mxCell>
        <mxCell id="jG1fITqHFRiVS3RjOqyx-77" value="Value" style="shape=partialRectangle;overflow=hidden;connectable=0;fillColor=none;top=0;left=0;bottom=0;right=0;align=left;spacingLeft=6;" vertex="1" parent="jG1fITqHFRiVS3RjOqyx-75">
          <mxGeometry x="30" width="220" height="30" as="geometry" />
        </mxCell>
        <mxCell id="jG1fITqHFRiVS3RjOqyx-78" value="" style="edgeStyle=entityRelationEdgeStyle;endArrow=ERzeroToMany;startArrow=ERone;endFill=1;startFill=0;" edge="1" parent="1" source="jG1fITqHFRiVS3RjOqyx-69" target="jG1fITqHFRiVS3RjOqyx-26">
          <mxGeometry width="100" height="100" relative="1" as="geometry">
            <mxPoint x="270" y="-170" as="sourcePoint" />
            <mxPoint x="425" y="-300" as="targetPoint" />
          </mxGeometry>
        </mxCell>
        <mxCell id="jG1fITqHFRiVS3RjOqyx-79" value="DeeviceTagModel" style="shape=table;startSize=30;container=1;collapsible=1;childLayout=tableLayout;fixedRows=1;rowLines=0;fontStyle=1;align=center;resizeLast=1;" vertex="1" parent="1">
          <mxGeometry x="860" y="-303" width="250" height="190" as="geometry">
            <mxRectangle x="65" y="-940" width="120" height="30" as="alternateBounds" />
          </mxGeometry>
        </mxCell>
        <mxCell id="jG1fITqHFRiVS3RjOqyx-80" value="" style="shape=partialRectangle;collapsible=0;dropTarget=0;pointerEvents=0;fillColor=none;points=[[0,0.5],[1,0.5]];portConstraint=eastwest;top=0;left=0;right=0;bottom=1;" vertex="1" parent="jG1fITqHFRiVS3RjOqyx-79">
          <mxGeometry y="30" width="250" height="30" as="geometry" />
        </mxCell>
        <mxCell id="jG1fITqHFRiVS3RjOqyx-81" value="PK" style="shape=partialRectangle;overflow=hidden;connectable=0;fillColor=none;top=0;left=0;bottom=0;right=0;fontStyle=1;" vertex="1" parent="jG1fITqHFRiVS3RjOqyx-80">
          <mxGeometry width="30" height="30" as="geometry" />
        </mxCell>
        <mxCell id="jG1fITqHFRiVS3RjOqyx-82" value="Id" style="shape=partialRectangle;overflow=hidden;connectable=0;fillColor=none;top=0;left=0;bottom=0;right=0;align=left;spacingLeft=6;fontStyle=5;" vertex="1" parent="jG1fITqHFRiVS3RjOqyx-80">
          <mxGeometry x="30" width="220" height="30" as="geometry" />
        </mxCell>
        <mxCell id="jG1fITqHFRiVS3RjOqyx-83" value="" style="shape=partialRectangle;collapsible=0;dropTarget=0;pointerEvents=0;fillColor=none;points=[[0,0.5],[1,0.5]];portConstraint=eastwest;top=0;left=0;right=0;bottom=0;" vertex="1" parent="jG1fITqHFRiVS3RjOqyx-79">
          <mxGeometry y="60" width="250" height="30" as="geometry" />
        </mxCell>
        <mxCell id="jG1fITqHFRiVS3RjOqyx-84" value="" style="shape=partialRectangle;overflow=hidden;connectable=0;fillColor=none;top=0;left=0;bottom=0;right=0;" vertex="1" parent="jG1fITqHFRiVS3RjOqyx-83">
          <mxGeometry width="30" height="30" as="geometry" />
        </mxCell>
        <mxCell id="jG1fITqHFRiVS3RjOqyx-85" value="..." style="shape=partialRectangle;overflow=hidden;connectable=0;fillColor=none;top=0;left=0;bottom=0;right=0;align=left;spacingLeft=6;" vertex="1" parent="jG1fITqHFRiVS3RjOqyx-83">
          <mxGeometry x="30" width="220" height="30" as="geometry" />
        </mxCell>
        <mxCell id="jG1fITqHFRiVS3RjOqyx-86" value="" style="shape=partialRectangle;collapsible=0;dropTarget=0;pointerEvents=0;fillColor=none;points=[[0,0.5],[1,0.5]];portConstraint=eastwest;top=0;left=0;right=0;bottom=0;" vertex="1" parent="jG1fITqHFRiVS3RjOqyx-79">
          <mxGeometry y="90" width="250" height="30" as="geometry" />
        </mxCell>
        <mxCell id="jG1fITqHFRiVS3RjOqyx-87" value="" style="shape=partialRectangle;overflow=hidden;connectable=0;fillColor=none;top=0;left=0;bottom=0;right=0;" vertex="1" parent="jG1fITqHFRiVS3RjOqyx-86">
          <mxGeometry width="30" height="30" as="geometry" />
        </mxCell>
        <mxCell id="jG1fITqHFRiVS3RjOqyx-88" value="Scaling" style="shape=partialRectangle;overflow=hidden;connectable=0;fillColor=none;top=0;left=0;bottom=0;right=0;align=left;spacingLeft=6;fontColor=#009900;labelBorderColor=#FF8000;" vertex="1" parent="jG1fITqHFRiVS3RjOqyx-86">
          <mxGeometry x="30" width="220" height="30" as="geometry" />
        </mxCell>
        <mxCell id="jG1fITqHFRiVS3RjOqyx-89" value="" style="shape=partialRectangle;collapsible=0;dropTarget=0;pointerEvents=0;fillColor=none;points=[[0,0.5],[1,0.5]];portConstraint=eastwest;top=0;left=0;right=0;bottom=0;" vertex="1" parent="jG1fITqHFRiVS3RjOqyx-79">
          <mxGeometry y="120" width="250" height="30" as="geometry" />
        </mxCell>
        <mxCell id="jG1fITqHFRiVS3RjOqyx-90" value="" style="shape=partialRectangle;overflow=hidden;connectable=0;fillColor=none;top=0;left=0;bottom=0;right=0;" vertex="1" parent="jG1fITqHFRiVS3RjOqyx-89">
          <mxGeometry width="30" height="30" as="geometry" />
        </mxCell>
        <mxCell id="jG1fITqHFRiVS3RjOqyx-91" value="ModbusValueId" style="shape=partialRectangle;overflow=hidden;connectable=0;fillColor=none;top=0;left=0;bottom=0;right=0;align=left;spacingLeft=6;fontColor=#009900;labelBorderColor=#FF8000;" vertex="1" parent="jG1fITqHFRiVS3RjOqyx-89">
          <mxGeometry x="30" width="220" height="30" as="geometry" />
        </mxCell>
        <mxCell id="jG1fITqHFRiVS3RjOqyx-92" value="" style="shape=partialRectangle;collapsible=0;dropTarget=0;pointerEvents=0;fillColor=none;points=[[0,0.5],[1,0.5]];portConstraint=eastwest;top=0;left=0;right=0;bottom=0;" vertex="1" parent="jG1fITqHFRiVS3RjOqyx-79">
          <mxGeometry y="150" width="250" height="30" as="geometry" />
        </mxCell>
        <mxCell id="jG1fITqHFRiVS3RjOqyx-93" value="" style="shape=partialRectangle;overflow=hidden;connectable=0;fillColor=none;top=0;left=0;bottom=0;right=0;" vertex="1" parent="jG1fITqHFRiVS3RjOqyx-92">
          <mxGeometry width="30" height="30" as="geometry" />
        </mxCell>
        <mxCell id="jG1fITqHFRiVS3RjOqyx-94" value="BACnetTypeId" style="shape=partialRectangle;overflow=hidden;connectable=0;fillColor=none;top=0;left=0;bottom=0;right=0;align=left;spacingLeft=6;fontColor=#009900;labelBorderColor=#FF8000;" vertex="1" parent="jG1fITqHFRiVS3RjOqyx-92">
          <mxGeometry x="30" width="220" height="30" as="geometry" />
        </mxCell>
      </root>
    </mxGraphModel>
  </diagram>
</mxfile>
